<svg width="32" height="32" viewBox="0 0 32 32" fill="none" xmlns="http://www.w3.org/2000/svg">
<path fill-rule="evenodd" clip-rule="evenodd" d="M27.7157 8.14104C28.1063 8.53156 28.1063 9.16473 27.7157 9.55525L16.7157 20.5553C16.3252 20.9458 15.6921 20.9458 15.3015 20.5553L10.3015 15.5553C9.91101 15.1647 9.91101 14.5316 10.3015 14.141C10.6921 13.7505 11.3252 13.7505 11.7157 14.141L16.0086 18.4339L26.3015 8.14104C26.6921 7.75051 27.3252 7.75051 27.7157 8.14104Z" fill="#00B548" style="fill: #00B548;"/>
<path fill-rule="evenodd" clip-rule="evenodd" d="M10.0106 6.03174C7.80148 6.03174 6.01062 7.8226 6.01062 10.0317V22.0317C6.01062 24.2409 7.80148 26.0317 10.0106 26.0317H22.0086C24.2178 26.0317 26.0086 24.2409 26.0086 22.0317V18.7642C26.0086 18.2119 26.4564 17.7642 27.0086 17.7642C27.5609 17.7642 28.0086 18.2119 28.0086 18.7642V22.0317C28.0086 25.3454 25.3223 28.0317 22.0086 28.0317H10.0106C6.6969 28.0317 4.01062 25.3454 4.01062 22.0317V10.0317C4.01062 6.71803 6.69691 4.03174 10.0106 4.03174H18.5253C19.0776 4.03174 19.5253 4.47945 19.5253 5.03174C19.5253 5.58402 19.0776 6.03174 18.5253 6.03174H10.0106Z" fill="white"/>
</svg>
