<?xml version="1.0" encoding="UTF-8"?>
<svg width="24px" height="24px" viewBox="0 0 24 24" version="1.1" class="loopindex-button"
    xmlns="http://www.w3.org/2000/svg" xmlns:xlink="http://www.w3.org/1999/xlink">
    <g id="pencil_24x24_mono" stroke="none" stroke-width="1" fill="none" fill-rule="evenodd" class="loopindex-svg-icon" class="loopindex-svg-icon">
        <g id="Group" transform="translate(2.000000, 3.000000)" fill="#C2C2C2" fill-rule="nonzero">
            <polygon id="Path" points="13.4 0 13.4 1.4 2.66453526e-15 1.4 2.66453526e-15 0"></polygon>
            <polygon id="Path" points="20.4 12 20.4 13.4 3.55271368e-15 13.4 3.55271368e-15 12"></polygon>
            <polygon id="Path" points="20.4 16 20.4 17.4 3.55271368e-15 17.4 3.55271368e-15 16"></polygon>
            <polygon id="Path" points="20.4 4 20.4 5.4 3.55271368e-15 5.4 3.55271368e-15 4"></polygon>
            <polygon id="Path" points="7.4 8 7.4 9.4 1.77635684e-15 9.4 1.77635684e-15 8"></polygon>
        </g>
        <path d="M16.6087467,4.42976 C16.4903467,4.44469333 16.38048,4.49696 16.29728,4.58336 L5.00874667,15.8740267 C4.93728,15.9454933 4.88821333,16.03616 4.86581333,16.13536 L4.19488,19.1518933 C4.15754667,19.3268267 4.21194667,19.5092267 4.33888,19.6350933 C4.46581333,19.76096 4.64821333,19.8132267 4.82314667,19.77376 L7.83328,19.10816 C7.93248,19.0868267 8.02314667,19.03776 8.09568,18.9662933 L19.3895467,7.67029333 C19.48768,7.57109333 19.5442133,7.43776 19.5442133,7.29802667 C19.5442133,7.16042667 19.48768,7.02709333 19.3895467,6.92789333 L17.0386133,4.58336 C16.9266133,4.46816 16.76768,4.41162667 16.6087467,4.42976 L16.6087467,4.42976 Z" id="Fill-1" fill="#3F4447"></path>
        <polygon id="Path" fill="#FFFFFF" points="15.2455467 7.11349333 16.8487467 8.72736 8.23648 17.3406933 6.62901333 15.73216"></polygon>
        <polygon id="Path" fill="#FFFFFF" points="16.66848 5.69056 18.2770133 7.29802667 17.59008 7.98602667 15.9815467 6.37749333"></polygon>
        <polygon id="Path" fill="#FFFFFF" points="5.88554667 16.4734933 7.50048 18.07776 7.46314667 18.1150933 5.39488 18.57376 5.85354667 16.50656"></polygon>
    </g>
</svg>