<?xml version="1.0" encoding="UTF-8"?>
<svg width="20px" height="18px" viewBox="0 0 20 18" version="1.1" class="loopindex-button"
    xmlns="http://www.w3.org/2000/svg" xmlns:xlink="http://www.w3.org/1999/xlink">
    <!-- Generator: Sketch 62 (91390) - https://sketch.com -->
    <g id="add-comment_1" stroke="none" stroke-width="1" fill="none" fill-rule="evenodd">
        <path class="loopindex-svg-icon" d="M20,0 L20,14 L10,14 L6,18 L2,14 L0,14 L0,0 L20,0 Z M18.6,1.4 L1.4,1.4 L1.4,12.6 L2.57989899,12.6 L6,16.021 L9.42010101,12.6 L18.6,12.6 L18.6,1.4 Z" id="Rectangle-4" fill="#C2C2C2" fill-rule="nonzero"></path>
        <path class="loopindex-svg-icon" d="M11,3 L11,6 L14,6 L14,8 L11,8 L11,11 L9,11 L9,8 L6,8 L6,6 L9,6 L9,3 L11,3 Z" id="Rectangle-2" fill="#13C203"></path>
    </g>
</svg>