<svg width="32" height="32" viewBox="0 0 32 32" fill="none" xmlns="http://www.w3.org/2000/svg">
<path fill-rule="evenodd" clip-rule="evenodd" d="M27.983 5.10205C27.983 4.54977 27.5353 4.10205 26.983 4.10205L4.97666 4.10205C4.42437 4.10205 3.97666 4.54977 3.97666 5.10205C3.97666 5.65434 4.42437 6.10205 4.97666 6.10205L26.983 6.10205C27.5353 6.10205 27.983 5.65434 27.983 5.10205Z" fill="white"/>
<path fill-rule="evenodd" clip-rule="evenodd" d="M19.1597 26.9658C19.1597 26.4135 18.712 25.9658 18.1597 25.9658L4.97673 25.9658C4.42444 25.9658 3.97673 26.4135 3.97673 26.9658C3.97673 27.5181 4.42444 27.9658 4.97673 27.9658L18.1597 27.9658C18.712 27.9658 19.1597 27.5181 19.1597 26.9658Z" fill="white"/>
<path fill-rule="evenodd" clip-rule="evenodd" d="M27.9831 27.0027L27.9832 19.8563C27.9832 17.0949 25.7446 14.8563 22.9831 14.8563L7.39098 14.8564L10.9007 11.3467C11.2912 10.9562 11.2912 10.3231 10.9007 9.93253C10.5101 9.54201 9.87696 9.54201 9.48644 9.93253L4.26964 15.1493C4.08211 15.3369 3.97675 15.5912 3.97675 15.8564C3.97675 16.1216 4.08211 16.376 4.26965 16.5635L9.48644 21.7803C9.87696 22.1708 10.5101 22.1708 10.9007 21.7803C11.2912 21.3898 11.2912 20.7566 10.9006 20.3661L7.39095 16.8564L22.9831 16.8563C24.64 16.8563 25.9832 18.1995 25.9832 19.8563L25.9831 27.0027C25.9831 27.555 26.4309 28.0027 26.9831 28.0027C27.5354 28.0027 27.9831 27.555 27.9831 27.0027Z" fill="white"/>
</svg>
