<svg width="32" height="32" viewBox="0 0 32 32" fill="none" xmlns="http://www.w3.org/2000/svg">
<path fill-rule="evenodd" clip-rule="evenodd" d="M4.01697 5.10205C4.01697 4.54977 4.46468 4.10205 5.01697 4.10205L27.0233 4.10205C27.5756 4.10205 28.0233 4.54977 28.0233 5.10205C28.0233 5.65434 27.5756 6.10205 27.0233 6.10205L5.01697 6.10205C4.46468 6.10205 4.01697 5.65434 4.01697 5.10205Z" fill="white"/>
<path fill-rule="evenodd" clip-rule="evenodd" d="M12.8403 26.9658C12.8403 26.4135 13.288 25.9658 13.8403 25.9658L27.0233 25.9658C27.5756 25.9658 28.0233 26.4135 28.0233 26.9658C28.0233 27.5181 27.5756 27.9658 27.0233 27.9658L13.8403 27.9658C13.288 27.9658 12.8403 27.5181 12.8403 26.9658Z" fill="white"/>
<path fill-rule="evenodd" clip-rule="evenodd" d="M4.01685 27.0027L4.01685 19.8563C4.01684 17.0949 6.25544 14.8563 9.01687 14.8563L24.609 14.8564L21.0993 11.3467C20.7088 10.9562 20.7088 10.3231 21.0993 9.93253C21.4899 9.54201 22.123 9.54201 22.5136 9.93253L27.7304 15.1493C27.9179 15.3369 28.0232 15.5912 28.0232 15.8564C28.0232 16.1216 27.9179 16.376 27.7304 16.5635L22.5136 21.7803C22.123 22.1708 21.4899 22.1708 21.0993 21.7803C20.7088 21.3898 20.7088 20.7566 21.0994 20.3661L24.609 16.8564L9.01686 16.8563C7.36 16.8563 6.01684 18.1995 6.01685 19.8563L6.01685 27.0027C6.01685 27.555 5.56914 28.0027 5.01685 28.0027C4.46457 28.0027 4.01685 27.555 4.01685 27.0027Z" fill="white"/>
</svg>
