<svg width="33" height="32" viewBox="0 0 33 32" fill="none" xmlns="http://www.w3.org/2000/svg">
<path fill-rule="evenodd" clip-rule="evenodd" d="M4.70752 5C4.70752 4.44772 5.15523 4 5.70752 4H27.7428C28.2951 4 28.7428 4.44772 28.7428 5C28.7428 5.55228 28.2951 6 27.7428 6H5.70752C5.15523 6 4.70752 5.55228 4.70752 5Z" fill="white"/>
<path fill-rule="evenodd" clip-rule="evenodd" d="M4.70752 27C4.70752 26.4477 5.15523 26 5.70752 26H22.6671C23.2194 26 23.6671 26.4477 23.6671 27C23.6671 27.5523 23.2194 28 22.6671 28H5.70752C5.15523 28 4.70752 27.5523 4.70752 27Z" fill="white"/>
<path d="M8.48863 11.3652C8.53598 11.4207 8.5859 11.4748 8.63838 11.5273L10.4763 13.3652H5.70752C5.15523 13.3652 4.70752 12.9175 4.70752 12.3652C4.70752 11.8129 5.15523 11.3652 5.70752 11.3652H8.48863Z" fill="white"/>
<path d="M8.43564 20.6985C8.49831 20.6204 8.56587 20.5449 8.63831 20.4725L10.4123 18.6985H5.70752C5.15523 18.6985 4.70752 19.1462 4.70752 19.6985C4.70752 20.2508 5.15523 20.6985 5.70752 20.6985H8.43564Z" fill="white"/>
<path d="M25.5644 20.6985C25.5017 20.6204 25.4342 20.5449 25.3617 20.4725L23.5877 18.6985H27.7428C28.2951 18.6985 28.7428 19.1462 28.7428 19.6985C28.7428 20.2508 28.2951 20.6985 27.7428 20.6985L25.5644 20.6985Z" fill="white"/>
<path d="M9.87575 21.7099C9.48522 22.1004 9.48522 22.7336 9.87575 23.1241C10.2663 23.5146 10.8994 23.5146 11.29 23.1241L17 17.4141L22.7101 23.1241C23.1006 23.5146 23.7338 23.5146 24.1243 23.1241C24.5148 22.7336 24.5148 22.1004 24.1243 21.7099L18.4142 15.9998L24.1242 10.2899C24.5147 9.89935 24.5147 9.26618 24.1242 8.87566C23.7337 8.48513 23.1005 8.48513 22.71 8.87566L17 14.5856L11.29 8.87566C10.8995 8.48513 10.2664 8.48513 9.87583 8.87566C9.48531 9.26618 9.48531 9.89935 9.87583 10.2899L15.5858 15.9998L9.87575 21.7099Z" fill="#F01414" style="fill: #F01414;"/>
</svg>
