<svg width="32" height="32" viewBox="0 0 32 32" fill="none" xmlns="http://www.w3.org/2000/svg">
<path fill-rule="evenodd" clip-rule="evenodd" d="M16.8979 23.7484C17.2884 23.3579 17.9216 23.3579 18.3121 23.7484L20.5283 25.9646L26.4156 19.1072C26.7753 18.6882 27.4067 18.6401 27.8257 18.9999C28.2447 19.3596 28.2928 19.991 27.933 20.41L21.6943 27.6768C21.1255 28.3394 20.113 28.3779 19.4955 27.7603L16.8979 25.1626C16.5074 24.7721 16.5074 24.139 16.8979 23.7484Z" fill="#00B548" style="fill: #00B548;"/>
<path fill-rule="evenodd" clip-rule="evenodd" d="M3.96521 5C3.96521 4.44772 4.41293 4 4.96521 4H21.9248C22.4771 4 22.9248 4.44772 22.9248 5C22.9248 5.55228 22.4771 6 21.9248 6H4.96521C4.41293 6 3.96521 5.55228 3.96521 5Z" fill="white"/>
<path fill-rule="evenodd" clip-rule="evenodd" d="M3.96521 12.3701C3.96521 11.8178 4.41293 11.3701 4.96521 11.3701H27.1066C27.6589 11.3701 28.1066 11.8178 28.1066 12.3701C28.1066 12.9224 27.6589 13.3701 27.1066 13.3701H4.96521C4.41293 13.3701 3.96521 12.9224 3.96521 12.3701Z" fill="white"/>
<path fill-rule="evenodd" clip-rule="evenodd" d="M3.96521 19.7C3.96521 19.1477 4.41293 18.7 4.96521 18.7H15.0425C15.5948 18.7 16.0425 19.1477 16.0425 19.7C16.0425 20.2522 15.5948 20.7 15.0425 20.7H4.96521C4.41293 20.7 3.96521 20.2522 3.96521 19.7Z" fill="white"/>
<path fill-rule="evenodd" clip-rule="evenodd" d="M3.96521 27C3.96521 26.4477 4.41293 26 4.96521 26H12.1918C12.7441 26 13.1918 26.4477 13.1918 27C13.1918 27.5523 12.7441 28 12.1918 28H4.96521C4.41293 28 3.96521 27.5523 3.96521 27Z" fill="white"/>
</svg>
