<svg width="32" height="32" viewBox="0 0 32 32" fill="none" xmlns="http://www.w3.org/2000/svg">
<path fill-rule="evenodd" clip-rule="evenodd" d="M18.9164 27.707C18.5259 27.3165 18.5259 26.6833 18.9164 26.2928L26.3995 18.8096C26.7901 18.4191 27.4232 18.4191 27.8138 18.8096C28.2043 19.2001 28.2043 19.8333 27.8138 20.2238L20.3306 27.707C19.9401 28.0975 19.3069 28.0975 18.9164 27.707Z" fill="#F01414" style="fill: #F01414;"/>
<path fill-rule="evenodd" clip-rule="evenodd" d="M27.8137 27.707C28.2042 27.3165 28.2042 26.6833 27.8137 26.2928L20.3306 18.8096C19.94 18.4191 19.3069 18.4191 18.9163 18.8096C18.5258 19.2001 18.5258 19.8333 18.9163 20.2238L26.3995 27.707C26.79 28.0975 27.4232 28.0975 27.8137 27.707Z" fill="#F01414" style="fill: #F01414;"/>
<path fill-rule="evenodd" clip-rule="evenodd" d="M3.96521 5C3.96521 4.44772 4.41293 4 4.96521 4H21.9248C22.4771 4 22.9248 4.44772 22.9248 5C22.9248 5.55228 22.4771 6 21.9248 6H4.96521C4.41293 6 3.96521 5.55228 3.96521 5Z" fill="white"/>
<path fill-rule="evenodd" clip-rule="evenodd" d="M3.96521 12.3701C3.96521 11.8178 4.41293 11.3701 4.96521 11.3701H27.1066C27.6589 11.3701 28.1066 11.8178 28.1066 12.3701C28.1066 12.9224 27.6589 13.3701 27.1066 13.3701H4.96521C4.41293 13.3701 3.96521 12.9224 3.96521 12.3701Z" fill="white"/>
<path fill-rule="evenodd" clip-rule="evenodd" d="M3.96521 19.7C3.96521 19.1477 4.41293 18.7 4.96521 18.7H12.6234C13.1756 18.7 13.6234 19.1477 13.6234 19.7C13.6234 20.2522 13.1756 20.7 12.6234 20.7H4.96521C4.41293 20.7 3.96521 20.2522 3.96521 19.7Z" fill="white"/>
<path fill-rule="evenodd" clip-rule="evenodd" d="M3.96521 27C3.96521 26.4477 4.41293 26 4.96521 26H12.6234C13.1756 26 13.6234 26.4477 13.6234 27C13.6234 27.5523 13.1756 28 12.6234 28H4.96521C4.41293 28 3.96521 27.5523 3.96521 27Z" fill="white"/>
</svg>
