<svg width="33" height="32" viewBox="0 0 33 32" fill="none" xmlns="http://www.w3.org/2000/svg">
<path fill-rule="evenodd" clip-rule="evenodd" d="M4.70752 5C4.70752 4.44772 5.15523 4 5.70752 4H27.7428C28.2951 4 28.7428 4.44772 28.7428 5C28.7428 5.55228 28.2951 6 27.7428 6H5.70752C5.15523 6 4.70752 5.55228 4.70752 5Z" fill="white"/>
<path fill-rule="evenodd" clip-rule="evenodd" d="M4.70752 27C4.70752 26.4477 5.15523 26 5.70752 26H22.6671C23.2194 26 23.6671 26.4477 23.6671 27C23.6671 27.5523 23.2194 28 22.6671 28H5.70752C5.15523 28 4.70752 27.5523 4.70752 27Z" fill="white"/>
<path d="M19.8404 11.3652H5.70752C5.15523 11.3652 4.70752 11.8129 4.70752 12.3652C4.70752 12.9175 5.15523 13.3652 5.70752 13.3652H17.8404L19.8404 11.3652Z" fill="white"/>
<path d="M7.43483 18.6985H5.70752C5.15523 18.6985 4.70752 19.1462 4.70752 19.6985C4.70752 20.2508 5.15523 20.6985 5.70752 20.6985H9.43483L7.43483 18.6985Z" fill="white"/>
<path d="M18.2853 20.6985H27.7428C28.2951 20.6985 28.7428 20.2508 28.7428 19.6985C28.7428 19.1462 28.2951 18.6985 27.7428 18.6985H20.2853L18.2853 20.6985Z" fill="white"/>
<path fill-rule="evenodd" clip-rule="evenodd" d="M25.0365 10.0583C25.427 10.4488 25.427 11.082 25.0365 11.4725L14.5672 21.9418C14.1767 22.3323 13.5435 22.3323 13.153 21.9418L8.39421 17.183C8.00369 16.7925 8.00369 16.1593 8.39421 15.7688C8.78474 15.3783 9.4179 15.3783 9.80843 15.7688L13.8601 19.8204L23.6222 10.0583C24.0128 9.66775 24.6459 9.66775 25.0365 10.0583Z" fill="#00B548" style="fill: #00B548;"/>
</svg>
