<svg width="24" height="24" viewBox="0 0 32 32" fill="none" xmlns="http://www.w3.org/2000/svg">
<path fill-rule="evenodd" clip-rule="evenodd" d="M14.5943 22.0321C14.6378 22.1035 14.6868 22.1818 14.7411 22.2658C15.0185 22.6954 15.4288 23.2657 15.9599 23.8321C17.0402 24.9845 18.5019 26 20.2758 26C22.0498 26 23.5115 24.9845 24.5918 23.8321C25.1228 23.2657 25.5331 22.6954 25.8106 22.2658C25.8649 22.1818 25.9138 22.1035 25.9573 22.0321C25.9138 21.9608 25.8649 21.8825 25.8106 21.7984C25.5331 21.3689 25.1228 20.7986 24.5918 20.2321C23.5115 19.0798 22.0498 18.0643 20.2758 18.0643C18.5019 18.0643 17.0402 19.0798 15.9599 20.2321C15.4288 20.7986 15.0185 21.3689 14.7411 21.7984C14.6868 21.8825 14.6378 21.9608 14.5943 22.0321ZM27.1067 22.0321C28.0011 21.5849 28.0009 21.5846 28.0008 21.5843L27.9994 21.5816L27.9968 21.5764L27.9888 21.5607C27.9822 21.5479 27.9731 21.5304 27.9616 21.5086C27.9385 21.4651 27.9056 21.4042 27.863 21.3284C27.7778 21.177 27.6534 20.9653 27.4907 20.7134C27.1665 20.2115 26.6842 19.5398 26.0509 18.8643C24.8025 17.5327 22.8488 16.0643 20.2758 16.0643C17.7029 16.0643 15.7492 17.5327 14.5008 18.8643C13.8675 19.5398 13.3851 20.2115 13.061 20.7134C12.8983 20.9653 12.7738 21.177 12.6887 21.3284C12.646 21.4042 12.6131 21.4651 12.5901 21.5086C12.5786 21.5304 12.5695 21.5479 12.5629 21.5607L12.5549 21.5764L12.5523 21.5816L12.5513 21.5835C12.5511 21.5838 12.5506 21.5849 13.445 22.0321L12.5506 21.5849C12.4098 21.8665 12.4098 22.1978 12.5506 22.4794L13.445 22.0321C12.5506 22.4794 12.5504 22.479 12.5506 22.4794L12.5523 22.4827L12.5549 22.4879L12.5629 22.5036C12.5695 22.5164 12.5786 22.5339 12.5901 22.5557C12.6131 22.5992 12.646 22.6601 12.6887 22.7359C12.7738 22.8873 12.8983 23.099 13.061 23.3509C13.3851 23.8528 13.8675 24.5245 14.5008 25.2C15.7492 26.5316 17.7029 28 20.2758 28C22.8488 28 24.8025 26.5316 26.0509 25.2C26.6842 24.5245 27.1665 23.8528 27.4907 23.3509C27.6534 23.099 27.7778 22.8873 27.863 22.7359C27.9056 22.6601 27.9385 22.5992 27.9616 22.5557C27.9731 22.5339 27.9822 22.5164 27.9888 22.5036L27.9968 22.4879L27.9994 22.4827L28.0004 22.4808C28.0005 22.4805 28.0011 22.4794 27.1067 22.0321ZM27.1067 22.0321L28.0011 22.4794C28.1418 22.1978 28.1415 21.8658 28.0008 21.5843L27.1067 22.0321ZM14.3388 21.5836C14.3386 21.5834 14.3386 21.5832 14.3388 21.5836Z" fill="#333333" style="fill: #333333;"/>
<path d="M20.2758 23.895C21.3047 23.895 22.1387 23.061 22.1387 22.0321C22.1387 21.0032 21.3047 20.1691 20.2758 20.1691C19.2469 20.1691 18.4128 21.0032 18.4128 22.0321C18.4128 23.061 19.2469 23.895 20.2758 23.895Z" fill="#333333" style="fill: #333333;"/>
<path fill-rule="evenodd" clip-rule="evenodd" d="M20.2758 21.895C20.2001 21.895 20.1387 21.9564 20.1387 22.0321C20.1387 22.1078 20.2001 22.1691 20.2758 22.1691C20.3515 22.1691 20.4128 22.1078 20.4128 22.0321C20.4128 21.9564 20.3515 21.895 20.2758 21.895ZM22.1387 22.0321C22.1387 23.061 21.3047 23.895 20.2758 23.895C19.2469 23.895 18.4128 23.061 18.4128 22.0321C18.4128 21.0032 19.2469 20.1691 20.2758 20.1691C21.3047 20.1691 22.1387 21.0032 22.1387 22.0321Z" fill="#333333" style="fill: #333333;"/>
<path fill-rule="evenodd" clip-rule="evenodd" d="M3.96521 5C3.96521 4.44772 4.41293 4 4.96521 4H21.9248C22.4771 4 22.9248 4.44772 22.9248 5C22.9248 5.55228 22.4771 6 21.9248 6H4.96521C4.41293 6 3.96521 5.55228 3.96521 5Z" fill="#333333" style="fill: #333333;"/>
<path fill-rule="evenodd" clip-rule="evenodd" d="M3.96521 12.37C3.96521 11.8177 4.41293 11.37 4.96521 11.37H27.1066C27.6589 11.37 28.1066 11.8177 28.1066 12.37C28.1066 12.9223 27.6589 13.37 27.1066 13.37H4.96521C4.41293 13.37 3.96521 12.9223 3.96521 12.37Z" fill="#00B548" style="fill: #00B548;"/>
<path fill-rule="evenodd" clip-rule="evenodd" d="M3.96521 19.7C3.96521 19.1477 4.41293 18.7 4.96521 18.7H8.39893C8.95121 18.7 9.39893 19.1477 9.39893 19.7C9.39893 20.2523 8.95121 20.7 8.39893 20.7H4.96521C4.41293 20.7 3.96521 20.2523 3.96521 19.7Z" fill="#333333" style="fill: #333333;"/>
<path fill-rule="evenodd" clip-rule="evenodd" d="M3.96521 27C3.96521 26.4477 4.41293 26 4.96521 26H11.1707C11.723 26 12.1707 26.4477 12.1707 27C12.1707 27.5523 11.723 28 11.1707 28H4.96521C4.41293 28 3.96521 27.5523 3.96521 27Z" fill="#F01414" style="fill: #F01414;"/>
</svg>
