<?xml version="1.0" encoding="UTF-8"?>
<svg width="12px" height="20px" viewBox="0 0 12 20" version="1.1" class="loopindex-button"
xmlns="http://www.w3.org/2000/svg" xmlns:xlink="http://www.w3.org/1999/xlink">
    <g id="Pages" stroke="none" stroke-width="1" fill="none" fill-rule="evenodd">
        <path class="loopindex-svg-icon" d="M10.2421779,1.83106373 C7.89841519,-0.610354578 4.10158481,-0.610354578 1.75782206,1.83106373 C-0.585940688,4.27128203 -0.585940688,8.23011173 1.75782206,10.66893 C1.75782206,10.66893 5.99779198,14.9999625 5.99779198,20 C5.99779198,14.9999625 10.2421779,10.66893 10.2421779,10.66893 C12.5859407,8.23011173 12.5859407,4.27128203 10.2421779,1.83106373 Z M5.99759998,8.75391565 C4.67336539,8.75391565 3.5998848,7.63570727 3.5998848,6.2538969 C3.5998848,4.87208654 4.67336539,3.75387815 5.99759998,3.75387815 C7.32644261,3.75387815 8.3999232,4.87208654 8.3999232,6.2538969 C8.3999232,7.63570727 7.32644261,8.75391565 5.99759998,8.75391565 Z" id="lance" fill="#0097DC" fill-rule="nonzero"></path>
    </g>
</svg>
